<?xml version="1.0" encoding="utf-8"?>
<!-- Generator: Adobe Illustrator 27.5.0, SVG Export Plug-In . SVG Version: 6.00 Build 0)  -->
<svg version="1.1" id="Layer_1" xmlns="http://www.w3.org/2000/svg" xmlns:xlink="http://www.w3.org/1999/xlink" x="0px" y="0px"
	 viewBox="0 0 4000 4000" style="enable-background:new 0 0 4000 4000;" xml:space="preserve">
<g>
	<rect style="fill:#FFFFFF;" width="4000" height="4000"/>
	<g>
		<path style="fill-rule:evenodd;clip-rule:evenodd;" d="M2653.652,2828.257h249.704c231.174,0,420.312-189.139,420.312-420.311
			c0-94.366-31.516-181.726-84.543-252.078c-26.72-35.45-58.903-66.58-95.268-92.111c-43.229,45.323-95.27,82.158-153.281,107.761
			c10.292,3.826,20.272,8.306,29.889,13.391c80.082,42.351,134.97,126.595,134.97,223.037c0,138.644-113.445,252.078-252.08,252.078
			h-89.86h-256.973L2653.652,2828.257z"/>
		<path style="fill-rule:evenodd;clip-rule:evenodd;" d="M1388.119,1931.875l194.658-337.155l147.078-254.745l-97.13-168.232
			l-480.176,831.688c60.874-37.902,130.358-62.097,203.679-69.781C1367.007,1932.52,1377.54,1932.061,1388.119,1931.875"/>
		<path style="fill-rule:evenodd;clip-rule:evenodd;" d="M1877.257,1931.748l-341.661-591.771l97.13-168.234l438.791,760.005
			H1877.257z M2394.861,2828.257l-267.338-463.04l-88.601-153.459h194.258l355.938,616.5H2394.861z"/>
		<path style="fill-rule:evenodd;clip-rule:evenodd;" d="M1384.934,2155.868h1414.597c231.174,0,420.311-189.139,420.311-420.311
			c0-94.366-31.516-181.726-84.542-252.078c-35.99-47.748-81.889-87.66-134.567-116.609
			c-49.912-27.427-105.911-45.013-165.335-50.096c-11.827-1.011-23.789-1.527-35.866-1.527H1780.112l97.13,168.232
			c372.183,0,550.107,0,922.29,0c42.201,0,82.067,10.51,117.109,29.041c80.082,42.351,134.97,126.595,134.97,223.038
			c0,138.644-113.448,252.078-252.079,252.078H1410.88c-17.175,0-31.42-0.224-48.828,1.598
			c-129.593,13.581-251.357,86.686-321.113,207.508l-364.605,631.515H870.59l316.041-547.399
			C1229.489,2206.624,1305.087,2162.419,1384.934,2155.868"/>
	</g>
</g>
</svg>
